<?xml version="1.0" ?><svg enable-background="new 0 0 32 32" version="1.1" viewBox="0 0 32 32" xml:space="preserve" xmlns="http://www.w3.org/2000/svg" xmlns:xlink="http://www.w3.org/1999/xlink"><g id="Style_2_copy_4"><g><g><g><g><path d="M16,0C7.163,0,0,7.163,0,16c0,8.836,7.163,16,16,16s16-7.164,16-16C32,7.163,24.837,0,16,0z" fill="#333333"/></g></g></g><g><g><path d="M3.69,16c0,4.872,2.831,9.083,6.938,11.078L4.756,10.99C4.073,12.521,3.69,14.215,3.69,16z" fill="#FFFFFF"/><path d="M24.31,15.379c0-1.522-0.547-2.575-1.015-3.395c-0.624-1.014-1.209-1.873-1.209-2.887      c0-1.131,0.858-2.185,2.067-2.185c0.055,0,0.106,0.007,0.159,0.01C22.123,4.915,19.205,3.69,16,3.69      c-4.301,0-8.084,2.207-10.285,5.548c0.289,0.009,0.561,0.015,0.792,0.015c1.287,0,3.281-0.156,3.281-0.156      c0.663-0.039,0.742,0.936,0.079,1.014c0,0-0.667,0.078-1.409,0.117l4.482,13.334l2.694-8.079l-1.918-5.255      c-0.663-0.039-1.291-0.117-1.291-0.117c-0.664-0.039-0.586-1.053,0.078-1.014c0,0,2.032,0.156,3.242,0.156      c1.287,0,3.281-0.156,3.281-0.156c0.664-0.039,0.742,0.936,0.079,1.014c0,0-0.668,0.078-1.409,0.117l4.449,13.232l1.228-4.102      C23.905,17.655,24.31,16.432,24.31,15.379z" fill="#FFFFFF"/><path d="M16.216,17.076l-3.694,10.732c1.103,0.324,2.269,0.502,3.478,0.502c1.433,0,2.808-0.247,4.088-0.698      c-0.033-0.053-0.063-0.109-0.088-0.17L16.216,17.076z" fill="#FFFFFF"/><path d="M26.802,10.094c0.053,0.392,0.083,0.813,0.083,1.266c0,1.249-0.234,2.653-0.936,4.409l-3.76,10.871      c3.66-2.134,6.121-6.099,6.121-10.64C28.31,13.859,27.763,11.847,26.802,10.094z" fill="#FFFFFF"/></g></g></g></g></svg>